<svg width="80" height="80" viewBox="0 0 80 80" fill="none" xmlns="http://www.w3.org/2000/svg">
<rect width="80" height="80" rx="12" fill="white" fill-opacity="0.1"/>
<g clip-path="url(#clip0_0_76)">
<path d="M26.6667 51.6667C24.8333 51.6667 23.2639 51.0139 21.9583 49.7083C20.6528 48.4028 20 46.8333 20 45C20 43.4167 20.5069 42.0139 21.5208 40.7917C22.5347 39.5694 23.8333 38.8055 25.4167 38.5L24.25 37.5H21.25C20.8889 37.5 20.5903 37.3819 20.3542 37.1458C20.1181 36.9097 20 36.6111 20 36.25C20 35.8889 20.1181 35.5903 20.3542 35.3542C20.5903 35.1181 20.8889 35 21.25 35H27.5L31.6667 37.5L37.75 35.2083C37.9444 35.1528 38.1389 35.1042 38.3333 35.0625C38.5278 35.0208 38.7361 35 38.9583 35H43.5833L41 31.6667H38.3333C37.8611 31.6667 37.4653 31.5069 37.1458 31.1875C36.8264 30.8681 36.6667 30.4722 36.6667 30C36.6667 29.5278 36.8264 29.1319 37.1458 28.8125C37.4653 28.4931 37.8611 28.3333 38.3333 28.3333H40.9583C41.4861 28.3333 41.9792 28.4514 42.4375 28.6875C42.8958 28.9236 43.2778 29.2361 43.5833 29.625L46.0833 32.8333L50.4583 30.625C50.7361 30.4861 51.0069 30.5 51.2708 30.6667C51.5347 30.8333 51.6667 31.0694 51.6667 31.375V34.1667C51.6667 34.3889 51.5833 34.5833 51.4167 34.75C51.25 34.9167 51.0556 35 50.8333 35H47.8333L50.75 38.8333C51.1667 38.6667 51.5903 38.5417 52.0208 38.4583C52.4514 38.375 52.8889 38.3333 53.3333 38.3333C55.1667 38.3333 56.7361 38.9861 58.0417 40.2917C59.3472 41.5972 60 43.1667 60 45C60 46.8333 59.3472 48.4028 58.0417 49.7083C56.7361 51.0139 55.1667 51.6667 53.3333 51.6667C51.5 51.6667 49.9306 51.0139 48.625 49.7083C47.3194 48.4028 46.6667 46.8333 46.6667 45C46.6667 44.25 46.7986 43.5208 47.0625 42.8125C47.3264 42.1042 47.6944 41.4444 48.1667 40.8333L47.3333 39.8333L42.1667 47.5833C42.0278 47.8055 41.8333 47.9861 41.5833 48.125C41.3333 48.2639 41.0694 48.3333 40.7917 48.3333H37.2917C37.0694 48.3333 36.8681 48.2986 36.6875 48.2292C36.5069 48.1597 36.3472 48.0555 36.2083 47.9167L33.3333 45.4167C33.1944 47.1667 32.4861 48.6458 31.2083 49.8542C29.9306 51.0625 28.4167 51.6667 26.6667 51.6667ZM26.6667 48.3333C27.5833 48.3333 28.3681 48.0069 29.0208 47.3542C29.6736 46.7014 30 45.9167 30 45C30 44.0833 29.6736 43.2986 29.0208 42.6458C28.3681 41.993 27.5833 41.6667 26.6667 41.6667C25.75 41.6667 24.9653 41.993 24.3125 42.6458C23.6597 43.2986 23.3333 44.0833 23.3333 45C23.3333 45.9167 23.6597 46.7014 24.3125 47.3542C24.9653 48.0069 25.75 48.3333 26.6667 48.3333ZM53.3333 48.3333C54.25 48.3333 55.0347 48.0069 55.6875 47.3542C56.3403 46.7014 56.6667 45.9167 56.6667 45C56.6667 44.0833 56.3403 43.2986 55.6875 42.6458C55.0347 41.993 54.25 41.6667 53.3333 41.6667C52.4167 41.6667 51.6319 41.993 50.9792 42.6458C50.3264 43.2986 50 44.0833 50 45C50 45.9167 50.3264 46.7014 50.9792 47.3542C51.6319 48.0069 52.4167 48.3333 53.3333 48.3333ZM39.9167 45L44.3333 38.3333H38.9167L32.9167 40.5833L37.9167 45H39.9167Z" fill="white"/>
</g>
<defs>
<clipPath id="clip0_0_76">
<rect width="40" height="40" fill="white" transform="translate(20 20)"/>
</clipPath>
</defs>
</svg>
