<svg width="80" height="80" viewBox="0 0 80 80" fill="none" xmlns="http://www.w3.org/2000/svg">
<rect width="80" height="80" rx="12" fill="white" fill-opacity="0.1"/>
<g clip-path="url(#clip0_0_73)">
<path d="M26.75 53.5V54.625C26.75 55.5625 26.4219 56.3594 25.7656 57.0156C25.1094 57.6719 24.3125 58 23.375 58C22.4375 58 21.6406 57.6719 20.9844 57.0156C20.3281 56.3594 20 55.5625 20 54.625V38.5375C20 38.275 20.0187 38.0125 20.0562 37.75C20.0938 37.4875 20.15 37.2437 20.225 37.0187L24.4437 25.0375C24.7438 24.1375 25.2875 23.4062 26.075 22.8438C26.8625 22.2812 27.7438 22 28.7188 22H51.7812C52.7562 22 53.6375 22.2812 54.425 22.8438C55.2125 23.4062 55.7562 24.1375 56.0562 25.0375L60.275 37.0187C60.35 37.2437 60.4062 37.4875 60.4437 37.75C60.4812 38.0125 60.5 38.275 60.5 38.5375V54.625C60.5 55.5625 60.1719 56.3594 59.5156 57.0156C58.8594 57.6719 58.0625 58 57.125 58C56.1875 58 55.3906 57.6719 54.7344 57.0156C54.0781 56.3594 53.75 55.5625 53.75 54.625V53.5H26.75ZM26.3 33.25H54.2L51.8375 26.5H28.6625L26.3 33.25ZM30.125 46.75C31.0625 46.75 31.8594 46.4219 32.5156 45.7656C33.1719 45.1094 33.5 44.3125 33.5 43.375C33.5 42.4375 33.1719 41.6406 32.5156 40.9844C31.8594 40.3281 31.0625 40 30.125 40C29.1875 40 28.3906 40.3281 27.7344 40.9844C27.0781 41.6406 26.75 42.4375 26.75 43.375C26.75 44.3125 27.0781 45.1094 27.7344 45.7656C28.3906 46.4219 29.1875 46.75 30.125 46.75ZM50.375 46.75C51.3125 46.75 52.1094 46.4219 52.7656 45.7656C53.4219 45.1094 53.75 44.3125 53.75 43.375C53.75 42.4375 53.4219 41.6406 52.7656 40.9844C52.1094 40.3281 51.3125 40 50.375 40C49.4375 40 48.6406 40.3281 47.9844 40.9844C47.3281 41.6406 47 42.4375 47 43.375C47 44.3125 47.3281 45.1094 47.9844 45.7656C48.6406 46.4219 49.4375 46.75 50.375 46.75ZM24.5 49H56V37.75H24.5V49Z" fill="white"/>
</g>
<defs>
<clipPath id="clip0_0_73">
<rect width="40" height="40" fill="white" transform="translate(20 20)"/>
</clipPath>
</defs>
</svg>
