<svg width="80" height="80" viewBox="0 0 80 80" fill="none" xmlns="http://www.w3.org/2000/svg">
<rect width="80" height="80" rx="12" fill="white" fill-opacity="0.1"/>
<g clip-path="url(#clip0_0_79)">
<path d="M23.3333 53.3333C22.4167 53.3333 21.6319 53.0069 20.9792 52.3542C20.3264 51.7014 20 50.9167 20 50H26.6667C25.75 50 24.9653 49.6736 24.3125 49.0208C23.6597 48.3681 23.3333 47.5833 23.3333 46.6667V28.3333C23.3333 27.4167 23.6597 26.6319 24.3125 25.9792C24.9653 25.3264 25.75 25 26.6667 25H53.3333C54.25 25 55.0347 25.3264 55.6875 25.9792C56.3403 26.6319 56.6667 27.4167 56.6667 28.3333V46.6667C56.6667 47.5833 56.3403 48.3681 55.6875 49.0208C55.0347 49.6736 54.25 50 53.3333 50H60C60 50.9167 59.6736 51.7014 59.0208 52.3542C58.3681 53.0069 57.5833 53.3333 56.6667 53.3333H23.3333ZM40 51.6667C40.4722 51.6667 40.8681 51.5069 41.1875 51.1875C41.5069 50.8681 41.6667 50.4722 41.6667 50C41.6667 49.5278 41.5069 49.1319 41.1875 48.8125C40.8681 48.4931 40.4722 48.3333 40 48.3333C39.5278 48.3333 39.1319 48.4931 38.8125 48.8125C38.4931 49.1319 38.3333 49.5278 38.3333 50C38.3333 50.4722 38.4931 50.8681 38.8125 51.1875C39.1319 51.5069 39.5278 51.6667 40 51.6667ZM26.6667 46.6667H53.3333V28.3333H26.6667V46.6667Z" fill="white"/>
</g>
<defs>
<clipPath id="clip0_0_79">
<rect width="40" height="40" fill="white" transform="translate(20 20)"/>
</clipPath>
</defs>
</svg>
