<svg width="243" height="70" viewBox="0 0 243 70" fill="none" xmlns="http://www.w3.org/2000/svg">
<path d="M33.5898 56.9898C45.0486 56.9898 54.3378 47.625 54.3378 36.073C54.3378 24.5211 45.0486 15.1563 33.5898 15.1563C22.131 15.1563 12.8418 24.5211 12.8418 36.073C12.8418 47.625 22.131 56.9898 33.5898 56.9898Z" fill="white"/>
<path d="M35.5098 41.7523L22.2539 40.1591C36.8938 32.7552 56.7514 22.8328 64.1323 19.4219C62.0085 21.753 59.7394 25.4662 57.3577 30.5125C54.9943 35.5206 53.3877 40.0627 53.372 40.1076L53.1206 40.823L53.8722 40.8706C61.4703 41.351 66.3123 43.4921 68.9494 45.1051C63.7774 43.698 58.1983 42.9852 52.318 42.9852C43.6959 42.9852 35.9366 44.5362 30.9454 45.8377C29.5169 46.21 28.2246 46.5848 27.0985 46.9333L35.5098 41.7523Z" fill="#00C48B"/>
<path d="M62.1385 20.9907C57.1354 27.8164 53.0477 39.3137 52.8355 39.9156L52.3314 41.3465L53.8346 41.4415C56.6484 41.6197 59.305 42.0434 61.73 42.7008C62.5169 42.9146 63.2802 43.1522 64.0161 43.4136C60.2792 42.747 56.3682 42.4117 52.3157 42.4117C43.6976 42.4117 35.9383 43.9495 30.9104 45.2536L34.4051 43.1021L37.2019 41.3795L33.9468 40.9887L24.1987 39.8179C28.3114 37.7415 35.6254 34.0587 43.0272 30.3693C52.8316 25.4814 58.6687 22.6381 62.1385 20.9907ZM66.9281 17.6445C65.4498 17.6445 20.3086 40.5016 20.3086 40.5016L33.8133 42.1253L22.2844 49.2255C22.2844 49.2255 35.7406 43.5575 52.3157 43.5575C58.5705 43.5575 65.2691 44.364 71.8565 46.5882C71.8565 46.5882 66.7513 41.1102 53.9053 40.2997C53.9053 40.2997 60.2478 22.2949 66.5864 17.9838C66.9255 17.7528 67.0302 17.6445 66.9281 17.6445Z" fill="#0F4B92"/>
<path d="M29.9219 32.8067C37.9207 27.132 50.2457 18.4108 55.0379 15.1016C54.6137 16.0203 54.2012 17.1924 53.8005 18.6114C53.3266 20.2918 53.0058 21.86 52.8892 22.4579L29.9219 32.8067Z" fill="#14E99F"/>
<path d="M53.9756 16.4341C53.7583 17.0466 53.5435 17.7277 53.3327 18.4774C52.9059 19.9941 52.606 21.392 52.4607 22.114L34.3209 30.2875C41.8039 24.985 49.6692 19.4318 53.9756 16.4341ZM56.8208 13.3281C56.4883 13.3281 25.5352 35.3206 25.5352 35.3206L53.3196 22.8018C53.3196 22.8018 54.7141 15.1141 56.7344 13.4152C56.8051 13.3558 56.8326 13.3281 56.8208 13.3281Z" fill="#0F4B92"/>
<path d="M71.1191 37.2079C71.1191 35.744 71.3745 34.2854 71.8851 32.8321C72.3958 31.3801 73.1447 30.0746 74.132 28.9196C75.1192 27.7646 76.3277 26.8314 77.7576 26.1225C79.1874 25.4137 80.8097 25.0586 82.6257 25.0586C84.7822 25.0586 86.631 25.551 88.1748 26.5344C89.7185 27.5191 90.8642 28.7995 91.6131 30.3782L89.1961 31.9569C88.8334 31.1794 88.3961 30.5274 87.8854 30.0007C87.3748 29.474 86.8183 29.0516 86.2173 28.7308C85.6163 28.4114 84.997 28.1817 84.3619 28.0444C83.7269 27.9072 83.1023 27.8385 82.4896 27.8385C81.1501 27.8385 79.9638 28.1184 78.932 28.6794C77.899 29.2404 77.0309 29.9716 76.3277 30.8758C75.6233 31.78 75.097 32.7977 74.7447 33.9303C74.3925 35.0629 74.2171 36.2007 74.2171 37.3451C74.2171 38.6269 74.4266 39.8452 74.8469 41.0002C75.2672 42.1552 75.8511 43.1796 76.6001 44.0719C77.349 44.9642 78.2342 45.673 79.2555 46.1997C80.2768 46.7264 81.3884 46.9891 82.5917 46.9891C83.2267 46.9891 83.8801 46.9086 84.5492 46.7488C85.2183 46.5891 85.8598 46.3317 86.4726 45.9766C87.0854 45.6216 87.6576 45.1754 88.1918 44.6382C88.7247 44.1009 89.162 43.4541 89.5025 42.6991L92.0557 44.1062C91.6694 45.021 91.1313 45.8275 90.4386 46.5257C89.746 47.224 88.963 47.8127 88.0897 48.2932C87.2163 48.7737 86.2906 49.1407 85.3151 49.3915C84.3397 49.6436 83.3865 49.769 82.4555 49.769C80.7992 49.769 79.2777 49.4033 77.8937 48.6707C76.5097 47.9381 75.3117 46.9838 74.3022 45.805C73.2927 44.6263 72.5084 43.2878 71.9532 41.7896C71.398 40.2914 71.1191 38.7642 71.1191 37.2079Z" fill="white"/>
<path d="M104.755 34.2877C103.257 34.3339 101.935 34.722 100.789 35.4546C99.6436 36.1872 98.8318 37.2049 98.3552 38.5091V49.5601H95.3594V31.6451H98.1509V35.7978C98.7637 34.5623 99.5689 33.538 100.568 32.7262C101.566 31.9144 102.633 31.5078 103.768 31.5078C103.995 31.5078 104.188 31.5078 104.347 31.5078C104.505 31.5078 104.641 31.5197 104.755 31.5421V34.2877Z" fill="white"/>
<path d="M115.614 49.9031C114.275 49.9031 113.049 49.6575 111.937 49.1652C110.824 48.6741 109.871 48.0049 109.078 47.1575C108.283 46.3113 107.665 45.3213 107.222 44.1888C106.78 43.0562 106.559 41.8616 106.559 40.6023C106.559 39.3444 106.78 38.1551 107.222 37.0331C107.665 35.9124 108.29 34.9277 109.095 34.0815C109.9 33.2354 110.859 32.5662 111.971 32.0738C113.083 31.5815 114.309 31.3359 115.648 31.3359C116.986 31.3359 118.207 31.5881 119.308 32.091C120.409 32.5939 121.344 33.2631 122.116 34.0987C122.888 34.9343 123.483 35.9058 123.904 37.0159C124.324 38.126 124.533 39.2757 124.533 40.4651C124.533 40.7172 124.528 40.9455 124.516 41.1515C124.505 41.3574 124.488 41.5171 124.465 41.6319H109.725C109.793 42.5243 109.997 43.3361 110.337 44.0687C110.678 44.8013 111.12 45.4296 111.665 45.9563C112.21 46.4829 112.828 46.8948 113.52 47.1918C114.213 47.4888 114.945 47.6379 115.716 47.6379C116.261 47.6379 116.794 47.564 117.316 47.4149C117.839 47.267 118.326 47.0664 118.78 46.8143C119.233 46.5621 119.636 46.2533 119.989 45.8876C120.341 45.522 120.607 45.1101 120.789 44.6521L123.376 45.3728C123.081 46.0368 122.678 46.6427 122.167 47.1918C121.657 47.7409 121.066 48.2161 120.397 48.6161C119.728 49.0173 118.984 49.3315 118.167 49.5599C117.35 49.7882 116.499 49.9031 115.614 49.9031ZM121.708 39.4011C121.64 38.555 121.43 37.7709 121.078 37.0502C120.726 36.3295 120.283 35.717 119.75 35.2141C119.216 34.7112 118.598 34.3165 117.895 34.0301C117.191 33.7436 116.443 33.6011 115.648 33.6011C114.853 33.6011 114.104 33.7436 113.401 34.0301C112.697 34.3165 112.079 34.7165 111.546 35.2313C111.012 35.7461 110.581 36.3585 110.252 37.0674C109.924 37.7762 109.725 38.555 109.657 39.4011H121.708Z" fill="white"/>
<path d="M135.154 49.9046C133.929 49.9046 132.794 49.6525 131.75 49.1496C130.706 48.6466 129.81 47.9721 129.061 47.1247C128.312 46.2786 127.728 45.2939 127.307 44.1732C126.887 43.0525 126.678 41.8737 126.678 40.6382C126.678 39.3803 126.875 38.1843 127.273 37.0518C127.67 35.9192 128.227 34.9292 128.941 34.0831C129.656 33.237 130.507 32.5677 131.495 32.0754C132.482 31.583 133.565 31.3375 134.746 31.3375C136.176 31.3375 137.452 31.715 138.576 32.4701C139.699 33.2251 140.589 34.1412 141.248 35.2157V24.5078H144.244V45.8549C144.244 46.565 144.562 46.9306 145.197 46.9531V49.5614C144.947 49.6076 144.726 49.6419 144.533 49.6644C144.339 49.6868 144.164 49.6987 144.006 49.6987C143.325 49.6987 142.78 49.5218 142.372 49.1667C141.963 48.8116 141.747 48.3826 141.725 47.8797L141.657 46.1981C140.953 47.3649 140.017 48.2744 138.848 48.9265C137.679 49.5786 136.448 49.9046 135.154 49.9046ZM135.869 47.2963C136.414 47.2963 136.976 47.1933 137.554 46.9874C138.133 46.7815 138.678 46.495 139.188 46.1294C139.699 45.7638 140.142 45.3348 140.516 44.8424C140.891 44.35 141.134 43.83 141.248 43.2809V38.1329C141.044 37.5613 140.737 37.0175 140.329 36.5027C139.92 35.9879 139.461 35.5417 138.95 35.1642C138.44 34.7867 137.895 34.4897 137.316 34.2719C136.737 34.0541 136.164 33.9458 135.597 33.9458C134.712 33.9458 133.912 34.1346 133.197 34.5121C132.482 34.8896 131.869 35.3925 131.359 36.0222C130.848 36.6518 130.456 37.3725 130.184 38.1843C129.912 38.9975 129.776 39.8264 129.776 40.6725C129.776 41.5649 129.934 42.4176 130.252 43.2294C130.569 44.0412 131.001 44.7447 131.546 45.3401C132.09 45.9354 132.732 46.4106 133.469 46.7643C134.206 47.1194 135.006 47.2963 135.869 47.2963Z" fill="white"/>
<path d="M149.283 28.283V24.5078H152.279V28.283H149.283ZM149.283 49.5614V31.6464H152.279V49.5614H149.283Z" fill="white"/>
<path d="M166.201 48.6702C166.019 48.7613 165.781 48.8708 165.486 48.9962C165.192 49.1229 164.856 49.2483 164.482 49.3737C164.107 49.4991 163.699 49.6021 163.256 49.6826C162.814 49.7631 162.354 49.8027 161.878 49.8027C160.788 49.8027 159.847 49.4991 159.052 48.8933C158.257 48.2874 157.86 47.3436 157.86 46.0619V34.0155H155.443V31.6475H157.86V25.6758H160.856V31.6475H164.839V34.0155H160.856V45.1352C160.902 45.7992 161.117 46.2797 161.503 46.5767C161.889 46.8737 162.342 47.0228 162.865 47.0228C163.455 47.0228 163.993 46.9251 164.482 46.7311C164.97 46.5371 165.304 46.3826 165.486 46.2678L166.201 48.6702Z" fill="white"/>
<path d="M183.836 28.7986C182.973 27.8152 182.008 27.1222 180.943 26.7223C179.875 26.3223 178.628 26.1217 177.198 26.1217C174.611 26.1217 172.738 26.614 171.581 27.5974C170.423 28.5822 169.844 29.8969 169.844 31.5442C169.844 32.3679 169.986 33.0596 170.27 33.6206C170.554 34.1816 170.995 34.6555 171.598 35.0449C172.199 35.4343 172.965 35.7603 173.896 36.023C174.825 36.287 175.938 36.555 177.232 36.8295C178.548 37.1041 179.739 37.4011 180.806 37.7218C181.874 38.0426 182.781 38.4478 183.53 38.9402C184.279 39.4326 184.858 40.0437 185.266 40.7763C185.675 41.5089 185.879 42.4118 185.879 43.4876C185.879 44.5172 185.675 45.4214 185.266 46.1989C184.858 46.9777 184.279 47.6284 183.53 48.1551C182.781 48.6818 181.879 49.0765 180.823 49.3392C179.768 49.6018 178.594 49.7338 177.3 49.7338C175.37 49.7338 173.634 49.4316 172.091 48.8244C170.548 48.2185 169.13 47.2852 167.836 46.0273L168.517 45.1693C169.652 46.3361 170.944 47.2166 172.398 47.8119C173.85 48.4072 175.496 48.7042 177.334 48.7042C179.603 48.7042 181.39 48.2871 182.696 47.4516C184 46.616 184.653 45.3409 184.653 43.6249C184.653 42.7563 184.495 42.0184 184.177 41.4112C183.858 40.8054 183.377 40.2906 182.73 39.8668C182.083 39.4431 181.271 39.0775 180.296 38.7686C179.319 38.4597 178.163 38.168 176.823 37.8934C175.507 37.6189 174.338 37.3324 173.317 37.0354C172.296 36.7384 171.439 36.3609 170.747 35.9029C170.054 35.4462 169.533 34.8852 169.181 34.2212C168.828 33.5572 168.653 32.723 168.653 31.7158C168.653 30.64 168.857 29.6857 169.266 28.8501C169.674 28.0146 170.248 27.3176 170.985 26.7566C171.722 26.1956 172.614 25.7666 173.657 25.4696C174.701 25.1726 175.87 25.0234 177.164 25.0234C178.73 25.0234 180.097 25.2531 181.266 25.7098C182.434 26.1679 183.508 26.8992 184.483 27.9063L183.836 28.7986Z" fill="white"/>
<path d="M197.384 49.9056C196.181 49.9056 195.058 49.66 194.014 49.1677C192.971 48.6766 192.057 48.0008 191.274 47.1428C190.491 46.2848 189.878 45.2895 189.435 44.157C188.993 43.0244 188.771 41.8179 188.771 40.5362C188.771 39.2782 188.988 38.0995 189.418 37.0012C189.849 35.903 190.451 34.942 191.223 34.1184C191.994 33.2947 192.891 32.6426 193.912 32.1621C194.933 31.6816 196.045 31.4414 197.248 31.4414C198.45 31.4414 199.574 31.6816 200.619 32.1621C201.662 32.6426 202.571 33.3 203.342 34.1355C204.113 34.9711 204.726 35.9492 205.18 37.0699C205.635 38.1906 205.861 39.3812 205.861 40.6392C205.861 40.6854 205.856 40.7764 205.844 40.9137C205.832 41.051 205.827 41.1315 205.827 41.154H189.963C190.031 42.2522 190.281 43.2765 190.712 44.2256C191.143 45.1747 191.694 45.9931 192.363 46.6795C193.032 47.3659 193.798 47.9097 194.661 48.3097C195.524 48.711 196.443 48.9103 197.418 48.9103C198.077 48.9103 198.717 48.8245 199.342 48.6529C199.966 48.4813 200.55 48.2358 201.095 47.915C201.64 47.5956 202.116 47.2114 202.525 46.7653C202.933 46.3191 203.262 45.8334 203.512 45.3067L204.568 45.5812C204.317 46.199 203.95 46.7772 203.461 47.3144C202.973 47.853 202.411 48.3097 201.776 48.6872C201.141 49.0647 200.448 49.3617 199.699 49.5795C198.95 49.7973 198.179 49.9056 197.384 49.9056ZM204.704 40.1587C204.636 39.038 204.397 38.0084 203.989 37.0699C203.58 36.1314 203.041 35.3196 202.372 34.6332C201.701 33.9468 200.937 33.4148 200.074 33.0373C199.211 32.6598 198.281 32.471 197.282 32.471C196.283 32.471 195.352 32.6664 194.491 33.0544C193.628 33.4438 192.868 33.9811 192.21 34.6675C191.551 35.3539 191.024 36.1657 190.627 37.1042C190.229 38.0427 189.997 39.0604 189.929 40.1587H204.704Z" fill="white"/>
<path d="M214.031 49.9056C213.214 49.9056 212.454 49.763 211.751 49.4766C211.047 49.1901 210.435 48.802 209.912 48.3097C209.39 47.8186 208.981 47.2405 208.687 46.5765C208.392 45.9126 208.244 45.1918 208.244 44.4144C208.244 43.6593 208.425 42.9676 208.789 42.338C209.152 41.7097 209.657 41.1658 210.304 40.7078C210.951 40.2511 211.722 39.896 212.619 39.6439C213.516 39.3918 214.508 39.2664 215.597 39.2664C216.573 39.2664 217.572 39.3469 218.593 39.5066C219.615 39.6663 220.522 39.9066 221.317 40.2273V38.3054C221.317 36.5208 220.811 35.0965 219.802 34.0326C218.792 32.9686 217.436 32.4367 215.734 32.4367C214.871 32.4367 213.958 32.6254 212.993 33.003C212.028 33.3805 211.047 33.9243 210.048 34.6332L209.504 33.7752C211.795 32.2189 213.895 31.4414 215.802 31.4414C217.867 31.4414 219.495 32.0592 220.687 33.2947C221.878 34.5302 222.474 36.2238 222.474 38.374V47.7091C222.474 48.212 222.678 48.4641 223.087 48.4641V49.5624C223.019 49.5848 222.929 49.5967 222.815 49.5967C222.428 49.5967 222.094 49.4541 221.81 49.1677C221.526 48.8812 221.385 48.5328 221.385 48.1209V46.5422C220.59 47.618 219.541 48.447 218.236 49.0304C216.93 49.6138 215.529 49.9056 214.031 49.9056ZM214.202 48.9103C215.632 48.9103 216.936 48.641 218.117 48.1038C219.296 47.5665 220.182 46.8392 220.772 45.9244C221.135 45.444 221.317 44.9859 221.317 44.5516V41.1883C219.569 40.5019 217.685 40.1587 215.666 40.1587C213.781 40.1587 212.266 40.5428 211.121 41.3084C209.975 42.0753 209.402 43.0996 209.402 44.38C209.402 45.0202 209.526 45.6156 209.776 46.1647C210.026 46.7138 210.36 47.1943 210.78 47.6061C211.201 48.018 211.705 48.3387 212.295 48.5671C212.886 48.7955 213.521 48.9103 214.202 48.9103Z" fill="white"/>
</svg>
