<svg width="184" height="184" viewBox="0 0 184 184" fill="none" xmlns="http://www.w3.org/2000/svg">
<g clip-path="url(#clip0_0_175)">
<rect width="184" height="184" rx="12" fill="white" fill-opacity="0.1"/>
<g opacity="0.2">
<path d="M154.712 161.858L148.792 156.04C148.043 155.291 147.107 154.917 145.984 154.917C144.861 154.917 143.892 155.325 143.075 156.142C142.326 156.89 141.952 157.843 141.952 159C141.952 160.157 142.326 161.11 143.075 161.858L151.854 170.637C152.671 171.454 153.624 171.862 154.712 171.862C155.801 171.862 156.754 171.454 157.571 170.637L174.925 153.283C175.742 152.467 176.133 151.514 176.099 150.425C176.065 149.336 175.674 148.383 174.925 147.567C174.108 146.75 173.139 146.325 172.016 146.291C170.893 146.257 169.923 146.648 169.106 147.465L154.712 161.858ZM143.279 198.812L137.358 188.808L126.129 186.358C125.108 186.154 124.292 185.627 123.679 184.776C123.067 183.925 122.828 182.99 122.965 181.969L124.087 170.433L116.431 161.654C115.751 160.906 115.41 160.021 115.41 159C115.41 157.979 115.751 157.094 116.431 156.346L124.087 147.567L122.965 136.031C122.828 135.01 123.067 134.075 123.679 133.224C124.292 132.373 125.108 131.846 126.129 131.642L137.358 129.192L143.279 119.187C143.824 118.303 144.572 117.707 145.525 117.401C146.478 117.095 147.431 117.146 148.383 117.554L159 122.046L169.617 117.554C170.569 117.146 171.522 117.095 172.475 117.401C173.428 117.707 174.176 118.303 174.721 119.187L180.642 129.192L191.871 131.642C192.892 131.846 193.708 132.373 194.321 133.224C194.933 134.075 195.172 135.01 195.035 136.031L193.912 147.567L201.569 156.346C202.249 157.094 202.59 157.979 202.59 159C202.59 160.021 202.249 160.906 201.569 161.654L193.912 170.433L195.035 181.969C195.172 182.99 194.933 183.925 194.321 184.776C193.708 185.627 192.892 186.154 191.871 186.358L180.642 188.808L174.721 198.812C174.176 199.697 173.428 200.293 172.475 200.599C171.522 200.905 170.569 200.854 169.617 200.446L159 195.954L148.383 200.446C147.431 200.854 146.478 200.905 145.525 200.599C144.572 200.293 143.824 199.697 143.279 198.812ZM148.587 191.462L159 186.971L169.617 191.462L175.333 181.662L186.562 179.008L185.542 167.575L193.096 159L185.542 150.221L186.562 138.787L175.333 136.337L169.412 126.537L159 131.029L148.383 126.537L142.667 136.337L131.437 138.787L132.458 150.221L124.904 159L132.458 167.575L131.437 179.212L142.667 181.662L148.587 191.462Z" fill="white"/>
</g>
<g clip-path="url(#clip1_0_175)">
<path fill-rule="evenodd" clip-rule="evenodd" d="M63.1111 68.6667C63.1111 66.8986 63.8135 65.2029 65.0637 63.9526C66.3139 62.7024 68.0096 62 69.7778 62H105.333C107.101 62 108.797 62.7024 110.047 63.9526C111.298 65.2029 112 66.8986 112 68.6667V70.8889C112 71.4783 111.766 72.0435 111.349 72.4602C110.932 72.877 110.367 73.1111 109.778 73.1111C109.188 73.1111 108.623 72.877 108.206 72.4602C107.79 72.0435 107.556 71.4783 107.556 70.8889V68.6667C107.556 68.0773 107.321 67.5121 106.905 67.0953C106.488 66.6786 105.923 66.4444 105.333 66.4444H69.7778C69.1884 66.4444 68.6231 66.6786 68.2064 67.0953C67.7897 67.5121 67.5555 68.0773 67.5555 68.6667V113.111C67.5555 113.7 67.7897 114.266 68.2064 114.682C68.6231 115.099 69.1884 115.333 69.7778 115.333H87.5555C88.1449 115.333 88.7101 115.567 89.1269 115.984C89.5436 116.401 89.7778 116.966 89.7778 117.556C89.7778 118.145 89.5436 118.71 89.1269 119.127C88.7101 119.544 88.1449 119.778 87.5555 119.778H69.7778C68.0096 119.778 66.3139 119.075 65.0637 117.825C63.8135 116.575 63.1111 114.879 63.1111 113.111V68.6667ZM74.2222 82C74.2222 81.4106 74.4563 80.8454 74.8731 80.4287C75.2898 80.0119 75.855 79.7778 76.4444 79.7778H94.2222C94.8116 79.7778 95.3768 80.0119 95.7935 80.4287C96.2103 80.8454 96.4444 81.4106 96.4444 82C96.4444 82.5894 96.2103 83.1546 95.7935 83.5713C95.3768 83.9881 94.8116 84.2222 94.2222 84.2222H76.4444C75.855 84.2222 75.2898 83.9881 74.8731 83.5713C74.4563 83.1546 74.2222 82.5894 74.2222 82ZM76.4444 88.6667C75.855 88.6667 75.2898 88.9008 74.8731 89.3175C74.4563 89.7343 74.2222 90.2995 74.2222 90.8889C74.2222 91.4783 74.4563 92.0435 74.8731 92.4602C75.2898 92.877 75.855 93.1111 76.4444 93.1111H87.5555C88.1449 93.1111 88.7101 92.877 89.1269 92.4602C89.5436 92.0435 89.7778 91.4783 89.7778 90.8889C89.7778 90.2995 89.5436 89.7343 89.1269 89.3175C88.7101 88.9008 88.1449 88.6667 87.5555 88.6667H76.4444ZM74.2222 99.7778C74.2222 99.1884 74.4563 98.6232 74.8731 98.2064C75.2898 97.7897 75.855 97.5556 76.4444 97.5556H83.1111C83.7005 97.5556 84.2657 97.7897 84.6824 98.2064C85.0992 98.6232 85.3333 99.1884 85.3333 99.7778C85.3333 100.367 85.0992 100.932 84.6824 101.349C84.2657 101.766 83.7005 102 83.1111 102H76.4444C75.855 102 75.2898 101.766 74.8731 101.349C74.4563 100.932 74.2222 100.367 74.2222 99.7778ZM105.333 77.5556C104.909 77.5554 104.494 77.6766 104.136 77.905C103.778 78.1334 103.494 78.4594 103.316 78.8444L96.6489 93.2889C96.4921 93.6276 96.4232 94.0003 96.4485 94.3726C96.4737 94.745 96.5923 95.105 96.7934 95.4194C96.9944 95.7338 97.2714 95.9925 97.5988 96.1717C97.9262 96.3508 98.2934 96.4446 98.6666 96.4444H102.207L94.3444 119.047C94.1679 119.549 94.1777 120.098 94.372 120.594C94.5663 121.09 94.9322 121.499 95.403 121.748C95.8738 121.997 96.4183 122.068 96.9374 121.949C97.4565 121.83 97.9155 121.529 98.2311 121.1L120.453 91.1C120.698 90.7692 120.846 90.3769 120.881 89.9668C120.916 89.5568 120.837 89.145 120.652 88.7775C120.466 88.41 120.183 88.1011 119.832 87.8854C119.482 87.6696 119.078 87.5554 118.667 87.5556H115.42L118.476 80.68C118.626 80.3416 118.689 79.9711 118.66 79.602C118.631 79.2329 118.51 78.877 118.308 78.5666C118.106 78.2562 117.83 78.0011 117.504 77.8245C117.179 77.648 116.815 77.5555 116.444 77.5556H105.333ZM102.14 92L106.756 82H113.024L109.969 88.8756C109.819 89.2139 109.755 89.5845 109.784 89.9535C109.814 90.3226 109.935 90.6785 110.137 90.989C110.338 91.2994 110.614 91.5545 110.94 91.731C111.265 91.9076 111.63 92 112 92H114.256L103.329 106.751L107.433 94.9511C107.55 94.6162 107.584 94.2584 107.534 93.9074C107.484 93.5565 107.35 93.2227 107.145 92.9338C106.939 92.645 106.667 92.4095 106.352 92.247C106.037 92.0846 105.688 91.9999 105.333 92H102.14Z" fill="white"/>
</g>
</g>
<defs>
<clipPath id="clip0_0_175">
<rect width="184" height="184" rx="12" fill="white"/>
</clipPath>
<clipPath id="clip1_0_175">
<rect width="60" height="60" fill="white" transform="translate(62 62)"/>
</clipPath>
</defs>
</svg>
