<svg width="228" height="45" viewBox="0 0 228 45" fill="none" xmlns="http://www.w3.org/2000/svg">
<g clip-path="url(#clip0_1_3402)">
<path d="M22.3545 44.989C34.7955 44.989 44.8809 34.9554 44.8809 22.5783C44.8809 10.2011 34.7955 0.167484 22.3545 0.167484C9.91354 0.167484 -0.171875 10.2011 -0.171875 22.5783C-0.171875 34.9554 9.91354 44.989 22.3545 44.989Z" fill="#0075FF"/>
<path d="M24.439 28.6632L10.0469 26.9562C25.9416 19.0234 47.5013 8.39224 55.5148 4.73772C53.209 7.23535 50.7454 11.2137 48.1595 16.6206C45.5936 21.9864 43.8493 26.8529 43.8322 26.901L43.5593 27.6675L44.3753 27.7185C52.6247 28.2333 57.8817 30.5272 60.7448 32.2555C55.1295 30.7478 49.0722 29.9841 42.6878 29.9841C33.3267 29.9841 24.9024 31.6459 19.4833 33.0404C17.9324 33.4392 16.5293 33.8409 15.3067 34.2143L24.439 28.6632Z" fill="#00C48B"/>
<path d="M53.3504 6.41864C47.9185 13.7319 43.4803 26.0503 43.25 26.6953L42.7027 28.2283L44.3347 28.3302C47.3897 28.5211 50.2741 28.9751 52.9068 29.6794C53.7612 29.9085 54.59 30.1631 55.3889 30.4431C51.3317 29.7289 47.0855 29.3697 42.6857 29.3697C33.3288 29.3697 24.9045 31.0173 19.4456 32.4146L23.2398 30.1093L26.2763 28.2637L22.7423 27.8451L12.1586 26.5906C16.6238 24.3659 24.5647 20.4201 32.6009 16.4671C43.2458 11.23 49.5832 8.18367 53.3504 6.41864ZM58.5505 2.83343C56.9456 2.83343 7.93506 27.3232 7.93506 27.3232L22.5973 29.0628L10.0802 36.6702C10.0802 36.6702 24.6898 30.5973 42.6857 30.5973C49.4766 30.5973 56.7494 31.4614 63.9014 33.8445C63.9014 33.8445 58.3586 27.9752 44.4115 27.1068C44.4115 27.1068 51.2976 7.81596 58.1795 3.1969C58.5477 2.9494 58.6614 2.83343 58.5505 2.83343Z" fill="white"/>
<path d="M18.3721 19.0786C27.0565 12.9986 40.4379 3.65443 45.6409 0.108818C45.1803 1.09316 44.7325 2.34905 44.2975 3.86941C43.7829 5.66979 43.4346 7.34997 43.3081 7.99064L18.3721 19.0786Z" fill="#14E99F"/>
<path d="M44.4876 1.53652C44.2516 2.19275 44.0185 2.92252 43.7896 3.72584C43.3262 5.35085 43.0006 6.84858 42.8428 7.62219L23.1482 16.3794C31.2725 10.6983 39.812 4.74837 44.4876 1.53652ZM47.5767 -1.79129C47.2156 -1.79129 13.6094 21.7721 13.6094 21.7721L43.7754 8.35904C43.7754 8.35904 45.2894 0.122239 47.4829 -1.69795C47.5596 -1.76159 47.5895 -1.79129 47.5767 -1.79129Z" fill="white"/>
<path d="M63.1006 23.7942C63.1006 22.2257 63.3778 20.6629 63.9322 19.1058C64.4866 17.5501 65.2998 16.1514 66.3716 14.9139C67.4435 13.6764 68.7556 12.6765 70.308 11.917C71.8604 11.1575 73.6217 10.7771 75.5935 10.7771C77.9348 10.7771 79.9421 11.3046 81.6181 12.3582C83.2942 13.4133 84.5381 14.7852 85.3512 16.4766L82.727 18.1681C82.3332 17.3351 81.8584 16.6365 81.304 16.0722C80.7495 15.5079 80.1454 15.0553 79.4929 14.7116C78.8404 14.3694 78.1679 14.1233 77.4785 13.9762C76.789 13.8291 76.1109 13.7556 75.4456 13.7556C73.9913 13.7556 72.7034 14.0554 71.5832 14.6565C70.4615 15.2575 69.519 16.041 68.7556 17.0098C67.9908 17.9786 67.4194 19.069 67.0369 20.2825C66.6545 21.4959 66.464 22.715 66.464 23.9412C66.464 25.3145 66.6915 26.6199 67.1478 27.8574C67.6042 29.0949 68.2382 30.1924 69.0513 31.1484C69.8645 32.1045 70.8255 32.864 71.9343 33.4283C73.0431 33.9926 74.2501 34.274 75.5565 34.274C76.246 34.274 76.9553 34.1877 77.6818 34.0166C78.4082 33.8455 79.1048 33.5697 79.7701 33.1893C80.4354 32.8088 81.0566 32.3308 81.6366 31.7552C82.2152 31.1796 82.69 30.4865 83.0596 29.6776L85.8317 31.1852C85.4123 32.1653 84.8281 33.0294 84.076 33.7776C83.324 34.5257 82.4739 35.1565 81.5257 35.6713C80.5775 36.1861 79.5725 36.5793 78.5134 36.848C77.4543 37.1181 76.4194 37.2525 75.4087 37.2525C73.6104 37.2525 71.9585 36.8607 70.4559 36.0758C68.9532 35.2909 67.6525 34.2684 66.5565 33.0054C65.4604 31.7424 64.6089 30.3083 64.0061 28.7031C63.4034 27.0979 63.1006 25.4616 63.1006 23.7942Z" fill="#0075FF"/>
<path d="M99.6197 20.6654C97.9934 20.7149 96.5576 21.1307 95.3138 21.9157C94.0699 22.7006 93.1885 23.791 92.671 25.1883V37.0287H89.4185V17.834H92.4493V22.2834C93.1146 20.9596 93.9888 19.8621 95.0735 18.9923C96.1568 18.1225 97.3153 17.6869 98.5479 17.6869C98.7938 17.6869 99.0042 17.6869 99.1762 17.6869C99.3482 17.6869 99.4961 17.6997 99.6197 17.7237V20.6654Z" fill="#0075FF"/>
<path d="M111.409 37.3961C109.955 37.3961 108.624 37.1331 107.418 36.6056C106.209 36.0794 105.174 35.3624 104.313 34.4544C103.45 33.5479 102.779 32.4872 102.298 31.2737C101.818 30.0602 101.578 28.7803 101.578 27.4311C101.578 26.0833 101.818 24.809 102.298 23.6069C102.779 22.4061 103.457 21.3511 104.331 20.4445C105.206 19.538 106.246 18.8209 107.454 18.2934C108.661 17.7659 109.992 17.5028 111.446 17.5028C112.899 17.5028 114.224 17.7729 115.42 18.3118C116.615 18.8506 117.63 19.5676 118.469 20.4629C119.306 21.3581 119.953 22.3991 120.409 23.5885C120.866 24.7779 121.093 26.0097 121.093 27.284C121.093 27.5541 121.087 27.7988 121.075 28.0194C121.062 28.2401 121.043 28.4112 121.019 28.5342H105.015C105.089 29.4903 105.311 30.3601 105.68 31.145C106.05 31.9299 106.53 32.6031 107.122 33.1674C107.713 33.7317 108.384 34.173 109.136 34.4912C109.888 34.8094 110.683 34.9692 111.52 34.9692C112.112 34.9692 112.69 34.89 113.257 34.7302C113.825 34.5718 114.353 34.3568 114.847 34.0867C115.339 33.8166 115.776 33.4856 116.159 33.0939C116.541 32.7021 116.83 32.2609 117.027 31.7701L119.836 32.5423C119.517 33.2537 119.079 33.9029 118.524 34.4912C117.97 35.0795 117.329 35.5887 116.602 36.0172C115.876 36.4471 115.068 36.7838 114.181 37.0284C113.294 37.2731 112.37 37.3961 111.409 37.3961ZM118.025 26.1441C117.951 25.2375 117.724 24.3974 117.342 23.6252C116.959 22.853 116.479 22.1968 115.9 21.658C115.32 21.1191 114.649 20.6963 113.886 20.3894C113.121 20.0825 112.309 19.9297 111.446 19.9297C110.583 19.9297 109.77 20.0825 109.007 20.3894C108.242 20.6963 107.571 21.1248 106.992 21.6764C106.412 22.2279 105.945 22.8842 105.588 23.6436C105.231 24.4031 105.015 25.2375 104.941 26.1441H118.025Z" fill="#0075FF"/>
<path d="M132.625 37.3978C131.294 37.3978 130.062 37.1277 128.929 36.5888C127.796 36.05 126.822 35.3273 126.009 34.4193C125.196 33.5128 124.561 32.4577 124.105 31.257C123.649 30.0562 123.421 28.7933 123.421 27.4695C123.421 26.1217 123.636 24.8404 124.068 23.6269C124.499 22.4134 125.103 21.3527 125.879 20.4462C126.655 19.5396 127.58 18.8226 128.651 18.295C129.723 17.7675 130.899 17.5045 132.181 17.5045C133.734 17.5045 135.12 17.9089 136.339 18.7179C137.559 19.5269 138.526 20.5084 139.241 21.6596V10.1869H142.493V33.0588C142.493 33.8197 142.839 34.2114 143.528 34.2355V37.0301C143.257 37.0796 143.016 37.1164 142.808 37.1404C142.597 37.1644 142.407 37.1772 142.235 37.1772C141.495 37.1772 140.904 36.9877 140.46 36.6072C140.017 36.2268 139.782 35.7671 139.758 35.2283L139.684 33.4265C138.921 34.6767 137.904 35.6512 136.635 36.3498C135.366 37.0485 134.029 37.3978 132.625 37.3978ZM133.401 34.6032C133.992 34.6032 134.602 34.4929 135.23 34.2722C135.859 34.0516 136.45 33.7447 137.005 33.3529C137.559 32.9612 138.04 32.5015 138.446 31.974C138.853 31.4465 139.117 30.8893 139.241 30.3009V24.7852C139.019 24.1728 138.686 23.5901 138.243 23.0386C137.799 22.487 137.3 22.009 136.746 21.6045C136.191 21.2 135.6 20.8818 134.972 20.6484C134.343 20.4151 133.721 20.2991 133.105 20.2991C132.144 20.2991 131.276 20.5013 130.499 20.9058C129.723 21.3103 129.058 21.8491 128.504 22.5238C127.949 23.1984 127.524 23.9706 127.228 24.8404C126.933 25.7116 126.785 26.5997 126.785 27.5063C126.785 28.4623 126.957 29.376 127.302 30.2458C127.646 31.1155 128.115 31.8694 128.707 32.5072C129.298 33.145 129.995 33.6542 130.795 34.0332C131.595 34.4137 132.464 34.6032 133.401 34.6032Z" fill="#0075FF"/>
<path d="M147.964 14.2318V10.1869H151.217V14.2318H147.964ZM147.964 37.0301V17.8354H151.217V37.0301H147.964Z" fill="#0075FF"/>
<path d="M166.333 36.0752C166.135 36.1728 165.876 36.2902 165.556 36.4245C165.237 36.5603 164.873 36.6947 164.466 36.829C164.059 36.9634 163.616 37.0737 163.135 37.16C162.655 37.2462 162.156 37.2887 161.638 37.2887C160.456 37.2887 159.434 36.9634 158.571 36.3142C157.708 35.6651 157.277 34.6538 157.277 33.2806V20.3738H154.653V17.8366H157.277V11.4383H160.53V17.8366H164.854V20.3738H160.53V32.2877C160.579 32.9991 160.813 33.5139 161.232 33.8321C161.651 34.1503 162.143 34.3102 162.71 34.3102C163.352 34.3102 163.936 34.2055 164.466 33.9976C164.996 33.7897 165.359 33.6242 165.556 33.5012L166.333 36.0752Z" fill="#0075FF"/>
<path d="M185.479 14.7842C184.542 13.7306 183.495 12.9881 182.337 12.5596C181.179 12.1311 179.824 11.9161 178.272 11.9161C175.463 11.9161 173.43 12.4436 172.173 13.4973C170.916 14.5523 170.288 15.9609 170.288 17.726C170.288 18.6085 170.442 19.3496 170.75 19.9506C171.059 20.5517 171.538 21.0594 172.192 21.4767C172.844 21.8939 173.676 22.2432 174.687 22.5246C175.696 22.8075 176.904 23.0946 178.309 23.3888C179.737 23.6829 181.031 24.0012 182.19 24.3448C183.348 24.6885 184.333 25.1227 185.147 25.6502C185.96 26.1777 186.588 26.8326 187.032 27.6175C187.475 28.4024 187.697 29.3698 187.697 30.5224C187.697 31.6256 187.475 32.5944 187.032 33.4274C186.588 34.2618 185.96 34.959 185.147 35.5233C184.333 36.0876 183.354 36.5105 182.208 36.792C181.062 37.0734 179.787 37.2148 178.383 37.2148C176.287 37.2148 174.402 36.891 172.728 36.2404C171.052 35.5912 169.512 34.5913 168.107 33.2435L168.847 32.3242C170.079 33.5744 171.482 34.5178 173.06 35.1556C174.637 35.7935 176.424 36.1117 178.42 36.1117C180.883 36.1117 182.824 35.6648 184.241 34.7695C185.657 33.8743 186.366 32.5081 186.366 30.6695C186.366 29.7389 186.194 28.9483 185.849 28.2977C185.503 27.6486 184.98 27.097 184.278 26.643C183.576 26.1891 182.694 25.7973 181.635 25.4663C180.575 25.1354 179.319 24.8228 177.865 24.5287C176.436 24.2345 175.167 23.9276 174.058 23.6094C172.949 23.2912 172.02 22.8867 171.268 22.3959C170.516 21.9066 169.95 21.3055 169.567 20.5941C169.185 19.8828 168.994 18.9889 168.994 17.9098C168.994 16.7572 169.216 15.7347 169.66 14.8394C170.103 13.9442 170.726 13.1974 171.526 12.5964C172.327 11.9953 173.295 11.5356 174.428 11.2174C175.561 10.8992 176.83 10.7394 178.235 10.7394C179.935 10.7394 181.419 10.9855 182.689 11.4748C183.957 11.9656 185.122 12.7491 186.181 13.8282L185.479 14.7842Z" fill="#0075FF"/>
<path d="M200.189 37.3988C198.882 37.3988 197.662 37.1358 196.529 36.6082C195.396 36.0821 194.404 35.358 193.554 34.4387C192.704 33.5194 192.039 32.4531 191.558 31.2396C191.078 30.0261 190.837 28.7335 190.837 27.3602C190.837 26.0124 191.072 24.7494 191.54 23.5728C192.007 22.3961 192.661 21.3665 193.499 20.484C194.336 19.6014 195.31 18.9028 196.419 18.388C197.527 17.8732 198.734 17.6158 200.041 17.6158C201.346 17.6158 202.565 17.8732 203.7 18.388C204.833 18.9028 205.819 19.6071 206.657 20.5023C207.494 21.3976 208.159 22.4456 208.653 23.6463C209.146 24.847 209.392 26.1227 209.392 27.4705C209.392 27.52 209.386 27.6176 209.373 27.7647C209.361 27.9118 209.355 27.9981 209.355 28.0221H192.131C192.205 29.1988 192.476 30.2963 192.944 31.3132C193.412 32.33 194.01 33.2069 194.737 33.9423C195.463 34.6777 196.295 35.2604 197.232 35.6889C198.169 36.1189 199.166 36.3325 200.226 36.3325C200.941 36.3325 201.636 36.2405 202.314 36.0567C202.992 35.8728 203.626 35.6097 204.217 35.2661C204.809 34.9238 205.326 34.5123 205.77 34.0342C206.213 33.5562 206.57 33.0357 206.842 32.4714L207.987 32.7656C207.716 33.4275 207.316 34.047 206.786 34.6226C206.256 35.1996 205.646 35.6889 204.957 36.0934C204.267 36.4979 203.515 36.8161 202.702 37.0495C201.889 37.2828 201.051 37.3988 200.189 37.3988ZM208.135 26.9557C208.061 25.755 207.803 24.6519 207.359 23.6463C206.916 22.6407 206.33 21.771 205.603 21.0355C204.876 20.3001 204.045 19.7301 203.108 19.3257C202.172 18.9212 201.162 18.7189 200.078 18.7189C198.993 18.7189 197.982 18.9282 197.047 19.344C196.11 19.7613 195.286 20.3369 194.57 21.0723C193.855 21.8077 193.283 22.6775 192.852 23.6831C192.42 24.6886 192.168 25.779 192.094 26.9557H208.135Z" fill="#0075FF"/>
<path d="M218.262 37.3988C217.375 37.3988 216.549 37.2461 215.786 36.9392C215.023 36.6323 214.357 36.2165 213.79 35.6889C213.223 35.1628 212.779 34.5434 212.459 33.832C212.14 33.1206 211.979 32.3484 211.979 31.5154C211.979 30.7064 212.175 29.9653 212.57 29.2907C212.964 28.6175 213.513 28.0348 214.215 27.5441C214.917 27.0547 215.755 26.6743 216.729 26.4042C217.702 26.134 218.78 25.9997 219.963 25.9997C221.022 25.9997 222.106 26.086 223.215 26.2571C224.324 26.4282 225.309 26.6856 226.172 27.0293V24.9701C226.172 23.058 225.623 21.5319 224.527 20.392C223.431 19.2521 221.959 18.6822 220.11 18.6822C219.174 18.6822 218.183 18.8844 217.135 19.2889C216.087 19.6934 215.023 20.2761 213.938 21.0355L213.347 20.1162C215.834 18.4488 218.115 17.6158 220.184 17.6158C222.426 17.6158 224.195 18.2777 225.488 19.6014C226.782 20.9252 227.429 22.7397 227.429 25.0436V35.0455C227.429 35.5843 227.651 35.8544 228.094 35.8544V37.0311C228.02 37.0551 227.922 37.0679 227.798 37.0679C227.379 37.0679 227.017 36.9151 226.708 36.6082C226.4 36.3013 226.246 35.928 226.246 35.4867V33.7952C225.383 34.9479 224.244 35.836 222.827 36.4611C221.41 37.0863 219.889 37.3988 218.262 37.3988ZM218.447 36.3325C220 36.3325 221.415 36.0439 222.698 35.4683C223.979 34.8927 224.94 34.1134 225.581 33.1333C225.974 32.6185 226.172 32.1278 226.172 31.6625V28.0589C224.274 27.3235 222.229 26.9557 220.037 26.9557C217.991 26.9557 216.346 27.3673 215.102 28.1876C213.858 29.0093 213.236 30.1068 213.236 31.4786C213.236 32.1645 213.371 32.8024 213.642 33.3907C213.914 33.9791 214.276 34.4939 214.733 34.9351C215.189 35.3764 215.736 35.7201 216.377 35.9647C217.019 36.2094 217.708 36.3325 218.447 36.3325Z" fill="#0075FF"/>
</g>
<defs>
<clipPath id="clip0_1_3402">
<rect width="228" height="45" fill="white"/>
</clipPath>
</defs>
</svg>
