<svg width="184" height="184" viewBox="0 0 184 184" fill="none" xmlns="http://www.w3.org/2000/svg">
<g clip-path="url(#clip0_0_371)">
<rect width="184" height="184" rx="12" fill="white" fill-opacity="0.1"/>
<path d="M154.588 169.34H142.554L145.061 161.009C145.828 158.517 145.587 155.825 144.39 153.51C143.192 151.194 141.135 149.441 138.658 148.627C137.947 148.393 137.195 148.308 136.45 148.377C135.704 148.447 134.981 148.67 134.326 149.032C133.671 149.394 133.097 149.888 132.641 150.482C132.185 151.076 131.857 151.757 131.677 152.484L131.291 154.104C129.837 159.942 126.824 165.274 122.574 169.533L120.376 171.693C119.817 170.989 119.108 170.419 118.3 170.026C117.493 169.632 116.607 169.424 115.708 169.417H112.893C111.31 169.417 109.791 170.04 108.665 171.152C107.539 172.264 106.896 173.775 106.876 175.357V200.197C106.876 201.793 107.51 203.323 108.638 204.452C109.766 205.58 111.297 206.214 112.893 206.214H115.708C116.744 206.212 117.762 205.94 118.661 205.427C119.56 204.913 120.311 204.174 120.838 203.283L121.378 203.553C124.865 205.294 128.706 206.205 132.603 206.214H146.45C148.739 206.225 150.995 205.667 153.015 204.59C155.035 203.513 156.755 201.95 158.021 200.043C160.716 196.014 162.153 191.274 162.148 186.427V176.823C162.149 175.834 161.952 174.854 161.572 173.941C161.191 173.028 160.633 172.2 159.93 171.504C159.227 170.808 158.393 170.259 157.476 169.887C156.559 169.516 155.578 169.33 154.588 169.34ZM117.714 200.197C117.714 200.77 117.487 201.319 117.082 201.724C116.676 202.13 116.127 202.357 115.554 202.357H112.893C112.32 202.357 111.77 202.13 111.365 201.724C110.96 201.319 110.733 200.77 110.733 200.197V175.357C110.733 174.784 110.96 174.235 111.365 173.83C111.77 173.425 112.32 173.197 112.893 173.197H115.708C116.254 173.236 116.765 173.481 117.137 173.882C117.509 174.283 117.716 174.81 117.714 175.357V200.197ZM158.214 186.427C158.23 190.543 157.022 194.571 154.743 197.999C153.831 199.362 152.597 200.48 151.151 201.253C149.705 202.027 148.09 202.433 146.45 202.434H132.603C129.31 202.431 126.062 201.665 123.114 200.197L121.571 199.426V175.743L125.12 172.194C129.868 167.447 133.24 161.502 134.878 154.991L135.264 153.41C135.379 152.987 135.656 152.626 136.036 152.407C136.23 152.322 136.44 152.278 136.653 152.278C136.865 152.278 137.075 152.322 137.27 152.407C138.03 152.66 138.733 153.06 139.338 153.585C139.944 154.109 140.44 154.748 140.798 155.465C141.156 156.181 141.37 156.961 141.426 157.76C141.482 158.559 141.381 159.362 141.127 160.121L137.887 170.96C137.803 171.247 137.787 171.55 137.841 171.845C137.895 172.14 138.016 172.418 138.196 172.657C138.371 172.901 138.603 173.099 138.872 173.234C139.141 173.368 139.438 173.435 139.738 173.429H154.357C154.833 173.429 155.305 173.522 155.745 173.705C156.184 173.887 156.584 174.154 156.921 174.491C157.257 174.827 157.525 175.227 157.707 175.667C157.889 176.107 157.983 176.578 157.983 177.054L158.214 186.427ZM125.428 132.157L124.194 139.293C124.046 140.083 124.127 140.898 124.427 141.643C124.728 142.388 125.236 143.032 125.891 143.497C126.616 144.038 127.494 144.335 128.398 144.346C129.097 144.335 129.783 144.163 130.404 143.844L137 140.45L143.441 143.844C144.15 144.218 144.949 144.384 145.748 144.323C146.547 144.261 147.311 143.975 147.954 143.497C148.603 143.035 149.106 142.398 149.407 141.66C149.707 140.923 149.792 140.115 149.651 139.331L148.571 132.157L153.624 127.143C154.208 126.591 154.623 125.885 154.821 125.106C155.019 124.328 154.992 123.509 154.743 122.746C154.494 121.983 154.037 121.305 153.424 120.787C152.81 120.269 152.065 119.932 151.271 119.814L144.058 118.773L140.857 112.177C140.497 111.463 139.946 110.863 139.265 110.444C138.584 110.025 137.8 109.803 137 109.803C136.2 109.803 135.416 110.025 134.735 110.444C134.054 110.863 133.503 111.463 133.143 112.177L129.941 118.696L122.728 119.737C121.935 119.855 121.189 120.192 120.576 120.71C119.963 121.227 119.506 121.906 119.257 122.669C118.992 123.443 118.957 124.277 119.155 125.071C119.354 125.865 119.778 126.584 120.376 127.143L125.428 132.157ZM123.114 123.556L131.33 122.36C131.701 122.384 132.071 122.298 132.393 122.113C132.716 121.928 132.977 121.651 133.143 121.319L137 113.874C137.034 113.8 137.088 113.738 137.156 113.694C137.225 113.65 137.304 113.627 137.386 113.627C137.467 113.627 137.546 113.65 137.615 113.694C137.683 113.738 137.737 113.8 137.771 113.874L141.628 121.319C141.767 121.6 141.974 121.843 142.23 122.025C142.485 122.207 142.783 122.322 143.094 122.36L151.31 123.556C151.39 123.572 151.464 123.609 151.525 123.663C151.586 123.717 151.632 123.787 151.657 123.864C151.694 123.929 151.714 124.002 151.714 124.076C151.714 124.151 151.694 124.224 151.657 124.289L145.717 130.074C145.492 130.299 145.323 130.573 145.223 130.874C145.122 131.175 145.093 131.496 145.138 131.81L146.566 139.949C146.592 140.031 146.587 140.119 146.551 140.198C146.515 140.276 146.452 140.339 146.373 140.373C146.306 140.423 146.225 140.45 146.141 140.45C146.058 140.45 145.977 140.423 145.91 140.373L138.581 136.516C138.31 136.364 138.005 136.284 137.694 136.284C137.383 136.284 137.078 136.364 136.807 136.516L129.44 140.373C129.379 140.42 129.305 140.445 129.228 140.445C129.151 140.445 129.076 140.42 129.016 140.373C128.937 140.339 128.873 140.276 128.837 140.198C128.802 140.119 128.797 140.031 128.823 139.949L130.25 131.81C130.295 131.496 130.266 131.175 130.166 130.874C130.065 130.573 129.896 130.299 129.671 130.074L123.731 124.289C123.694 124.224 123.674 124.151 123.674 124.076C123.674 124.002 123.694 123.929 123.731 123.864C123.631 123.87 123.532 123.843 123.448 123.787C123.365 123.732 123.302 123.65 123.268 123.556H123.114ZM111.311 155.107C111.886 155.118 112.455 155 112.979 154.762C113.502 154.524 113.965 154.172 114.335 153.732C114.704 153.292 114.971 152.775 115.115 152.219C115.26 151.663 115.278 151.081 115.168 150.517L114.127 144.654L118.447 140.45C118.991 139.951 119.381 139.305 119.569 138.591C119.757 137.877 119.736 137.123 119.509 136.42C119.281 135.717 118.857 135.095 118.286 134.626C117.714 134.158 117.021 133.863 116.287 133.777L110.386 132.929L107.724 127.567C107.369 126.95 106.858 126.438 106.241 126.082C105.625 125.725 104.926 125.538 104.214 125.538C103.502 125.538 102.803 125.725 102.187 126.082C101.571 126.438 101.059 126.95 100.704 127.567L98.0428 132.929L92.1413 133.777C91.4076 133.863 90.7139 134.158 90.1428 134.626C89.5717 135.095 89.1472 135.717 88.9196 136.42C88.6921 137.123 88.6713 137.877 88.8595 138.591C89.0477 139.305 89.4371 139.951 89.9813 140.45L94.2628 144.654L93.2213 150.517C93.0877 151.244 93.1657 151.994 93.4461 152.678C93.7264 153.362 94.1973 153.95 94.8028 154.374C95.3941 154.806 96.0962 155.061 96.8271 155.109C97.5579 155.157 98.2873 154.996 98.9299 154.644L104.214 151.867L109.498 154.644C110.056 154.945 110.678 155.104 111.311 155.107ZM104.214 147.779C103.903 147.777 103.597 147.856 103.327 148.01L97.0399 151.173L98.4285 144.307C98.4499 143.977 98.391 143.647 98.2566 143.344C98.1222 143.042 97.9165 142.777 97.657 142.571L92.6813 137.596L99.6242 136.593C99.9311 136.555 100.223 136.44 100.473 136.258C100.723 136.075 100.922 135.832 101.051 135.551L104.253 129.264L107.377 135.551C107.506 135.832 107.705 136.075 107.955 136.258C108.205 136.44 108.497 136.555 108.804 136.593L115.747 137.711L110.771 142.571C110.547 142.796 110.377 143.07 110.277 143.371C110.177 143.672 110.148 143.993 110.193 144.307L111.311 151.25L105.101 148.01C104.831 147.856 104.525 147.777 104.214 147.779ZM185.021 136.439C184.801 135.741 184.387 135.12 183.827 134.648C183.266 134.177 182.584 133.875 181.858 133.777L175.957 132.929L173.296 127.567C172.941 126.95 172.429 126.438 171.813 126.082C171.197 125.725 170.497 125.538 169.786 125.538C169.074 125.538 168.375 125.725 167.758 126.082C167.142 126.438 166.631 126.95 166.276 127.567L163.614 132.929L157.713 133.777C156.979 133.863 156.285 134.158 155.714 134.626C155.143 135.095 154.719 135.717 154.491 136.42C154.264 137.123 154.243 137.877 154.431 138.591C154.619 139.305 155.008 139.951 155.553 140.45L159.834 144.654L158.793 150.517C158.659 151.244 158.737 151.994 159.018 152.678C159.298 153.362 159.769 153.95 160.374 154.374C160.965 154.806 161.668 155.061 162.399 155.109C163.129 155.157 163.859 154.996 164.501 154.644L169.786 151.867L175.07 154.644C175.627 154.945 176.25 155.104 176.883 155.107C177.457 155.118 178.027 155 178.55 154.762C179.073 154.524 179.536 154.172 179.906 153.732C180.276 153.292 180.543 152.775 180.687 152.219C180.831 151.663 180.849 151.081 180.74 150.517L179.698 144.654L183.98 140.45C184.517 139.95 184.901 139.307 185.085 138.596C185.27 137.885 185.247 137.137 185.021 136.439ZM176.343 142.571C176.118 142.796 175.949 143.07 175.848 143.371C175.748 143.672 175.719 143.993 175.764 144.307L176.883 151.25L170.673 148.01C170.402 147.858 170.096 147.778 169.786 147.778C169.475 147.778 169.169 147.858 168.898 148.01L162.611 151.173L164 144.307C164.021 143.977 163.962 143.647 163.828 143.344C163.694 143.042 163.488 142.777 163.228 142.571L158.253 137.596L165.196 136.593C165.503 136.555 165.795 136.44 166.045 136.258C166.294 136.075 166.493 135.832 166.623 135.551L169.824 129.264L172.948 135.551C173.078 135.832 173.277 136.075 173.527 136.258C173.776 136.44 174.069 136.555 174.376 136.593L181.318 137.711L176.343 142.571Z" fill="white" fill-opacity="0.2"/>
<path d="M92 114.5C91.2917 114.5 90.6979 114.26 90.2188 113.781C89.7396 113.302 89.5 112.708 89.5 112C89.5 111.292 89.7396 110.698 90.2188 110.219C90.6979 109.74 91.2917 109.5 92 109.5H109.5V91.75C109.5 86.875 107.802 82.7396 104.406 79.3438C101.01 75.9479 96.875 74.25 92 74.25C87.125 74.25 82.9896 75.9479 79.5938 79.3438C76.1979 82.7396 74.5 86.875 74.5 91.75V104.5C74.5 105.208 74.2604 105.802 73.7812 106.281C73.3021 106.76 72.7083 107 72 107C70.625 107 69.4479 106.51 68.4688 105.531C67.4896 104.552 67 103.375 67 102V97C67 96.125 67.2188 95.3021 67.6562 94.5312C68.0938 93.7604 68.7083 93.1458 69.5 92.6875L69.6875 89.375C70.0208 86.5417 70.8438 83.9167 72.1562 81.5C73.4688 79.0833 75.1146 76.9792 77.0938 75.1875C79.0729 73.3958 81.3438 72 83.9062 71C86.4688 70 89.1667 69.5 92 69.5C94.8333 69.5 97.5208 70 100.062 71C102.604 72 104.875 73.3854 106.875 75.1562C108.875 76.9271 110.521 79.0208 111.812 81.4375C113.104 83.8542 113.938 86.4792 114.312 89.3125L114.5 92.5625C115.292 92.9375 115.906 93.5 116.344 94.25C116.781 95 117 95.7917 117 96.625V102.375C117 103.208 116.781 104 116.344 104.75C115.906 105.5 115.292 106.062 114.5 106.438V109.5C114.5 110.875 114.01 112.052 113.031 113.031C112.052 114.01 110.875 114.5 109.5 114.5H92ZM84.5 97C83.7917 97 83.1979 96.7604 82.7188 96.2812C82.2396 95.8021 82 95.2083 82 94.5C82 93.7917 82.2396 93.1979 82.7188 92.7188C83.1979 92.2396 83.7917 92 84.5 92C85.2083 92 85.8021 92.2396 86.2812 92.7188C86.7604 93.1979 87 93.7917 87 94.5C87 95.2083 86.7604 95.8021 86.2812 96.2812C85.8021 96.7604 85.2083 97 84.5 97ZM99.5 97C98.7917 97 98.1979 96.7604 97.7188 96.2812C97.2396 95.8021 97 95.2083 97 94.5C97 93.7917 97.2396 93.1979 97.7188 92.7188C98.1979 92.2396 98.7917 92 99.5 92C100.208 92 100.802 92.2396 101.281 92.7188C101.76 93.1979 102 93.7917 102 94.5C102 95.2083 101.76 95.8021 101.281 96.2812C100.802 96.7604 100.208 97 99.5 97ZM77.0625 93.125C76.7708 88.7083 78.1042 84.9167 81.0625 81.75C84.0208 78.5833 87.7083 77 92.125 77C95.8333 77 99.0938 78.1771 101.906 80.5312C104.719 82.8854 106.417 85.8958 107 89.5625C103.208 89.5208 99.7188 88.5 96.5312 86.5C93.3438 84.5 90.8958 81.7917 89.1875 78.375C88.5208 81.7083 87.1146 84.6771 84.9688 87.2812C82.8229 89.8854 80.1875 91.8333 77.0625 93.125Z" fill="white"/>
</g>
<defs>
<clipPath id="clip0_0_371">
<rect width="184" height="184" rx="12" fill="white"/>
</clipPath>
</defs>
</svg>
