<svg width="80" height="80" viewBox="0 0 80 80" fill="none" xmlns="http://www.w3.org/2000/svg">
<rect width="80" height="80" rx="12" fill="white" fill-opacity="0.1"/>
<path d="M31.6666 58.3333C30.75 58.3333 29.9653 58.0069 29.3125 57.3542C28.6597 56.7014 28.3333 55.9167 28.3333 55V25C28.3333 24.0833 28.6597 23.2986 29.3125 22.6458C29.9653 21.993 30.75 21.6667 31.6666 21.6667H48.3333C49.25 21.6667 50.0347 21.993 50.6875 22.6458C51.3403 23.2986 51.6666 24.0833 51.6666 25V55C51.6666 55.9167 51.3403 56.7014 50.6875 57.3542C50.0347 58.0069 49.25 58.3333 48.3333 58.3333H31.6666ZM31.6666 50V55H48.3333V50H31.6666ZM40 54.1667C40.4722 54.1667 40.868 54.0069 41.1875 53.6875C41.5069 53.368 41.6666 52.9722 41.6666 52.5C41.6666 52.0278 41.5069 51.6319 41.1875 51.3125C40.868 50.993 40.4722 50.8333 40 50.8333C39.5278 50.8333 39.1319 50.993 38.8125 51.3125C38.493 51.6319 38.3333 52.0278 38.3333 52.5C38.3333 52.9722 38.493 53.368 38.8125 53.6875C39.1319 54.0069 39.5278 54.1667 40 54.1667ZM31.6666 46.6667H48.3333V30H31.6666V46.6667ZM31.6666 26.6667H48.3333V25H31.6666V26.6667Z" fill="white"/>
</svg>
