<svg width="224" height="153" viewBox="0 0 224 153" fill="none" xmlns="http://www.w3.org/2000/svg">
<g clip-path="url(#clip0_0_6)">
<path d="M100.953 103.469C128.214 103.469 150.313 81.3704 150.313 54.1097C150.313 26.8491 128.214 4.75 100.953 4.75C73.6929 4.75 51.5938 26.8491 51.5938 54.1097C51.5938 81.3704 73.6929 103.469 100.953 103.469Z" fill="white"/>
<path d="M105.519 67.5053L73.9844 63.7457C108.813 46.2753 156.052 22.8606 173.611 14.8086C168.558 20.3091 163.16 29.0713 157.495 40.9794C151.873 52.7987 148.052 63.516 148.013 63.6222L147.413 65.3109L149.202 65.4228C167.277 66.5558 178.797 71.6085 185.069 75.4144C172.764 72.0929 159.491 70.4119 145.504 70.4119C124.994 70.4119 106.534 74.0712 94.6585 77.1418C91.2579 78.02 88.1872 78.9039 85.5065 79.728L105.519 67.5053Z" fill="#14EBA1"/>
<path d="M168.868 18.5128C156.964 34.6206 147.243 61.7506 146.739 63.1692L145.54 66.5466L149.117 66.7705C155.81 67.1893 162.131 68.1891 167.899 69.7427C169.771 70.2465 171.588 70.8081 173.34 71.4257C164.45 69.8547 155.144 69.0614 145.504 69.0614C125.003 69.0614 106.543 72.6918 94.5825 75.7663L102.895 70.6884L109.55 66.6219L101.807 65.6994L78.6176 62.9356C88.4027 58.0373 105.804 49.3465 123.411 40.6403C146.727 29.1124 160.614 22.4018 168.868 18.5128ZM180.263 10.6172C176.746 10.6172 69.3574 64.553 69.3574 64.553L101.484 68.3821L74.0589 85.1383C74.0589 85.1383 106.07 71.7634 145.502 71.7634C160.382 71.7634 176.318 73.6684 191.99 78.9141C191.99 78.9141 179.844 65.9889 149.285 64.0743C149.285 64.0743 164.373 21.5873 179.452 11.4143C180.257 10.8719 180.504 10.6172 180.263 10.6172Z" fill="#0F4B92"/>
<path d="M92.2285 46.3978C111.258 33.0075 140.577 12.426 151.979 4.61719C150.972 6.78458 149.988 9.55028 149.036 12.9008C147.911 16.8669 147.145 20.5667 146.867 21.9775L92.2285 46.3978Z" fill="#14E99F"/>
<path d="M149.451 7.76181C148.934 9.20738 148.424 10.8131 147.922 12.5849C146.905 16.165 146.193 19.4615 145.848 21.1657L102.693 40.4522C120.495 27.94 139.205 14.8353 149.451 7.76181ZM156.22 0.433594C155.428 0.433594 81.793 52.3313 81.793 52.3313L147.892 22.7907C147.892 22.7907 151.207 4.65065 156.015 0.640105C156.181 0.501145 156.247 0.433594 156.22 0.433594Z" fill="#0F4B92"/>
<path d="M-0.123047 134.205C-0.123047 132.065 0.253304 129.932 1.006 127.807C1.7587 125.684 2.86267 123.775 4.31788 122.087C5.77311 120.398 7.5545 119.033 9.66206 117.997C11.7696 116.961 14.1609 116.441 16.8378 116.441C20.0165 116.441 22.7417 117.161 25.0171 118.599C27.2926 120.039 28.9814 121.911 30.0853 124.219L26.5225 126.528C25.9879 125.391 25.3433 124.437 24.5906 123.667C23.8379 122.897 23.0177 122.28 22.1318 121.811C21.2459 121.344 20.333 121.008 19.397 120.807C18.4609 120.606 17.5403 120.506 16.6371 120.506C14.6627 120.506 12.9141 120.915 11.3933 121.735C9.87049 122.556 8.59091 123.625 7.5545 124.947C6.51616 126.269 5.74029 127.757 5.22112 129.413C4.70195 131.069 4.44333 132.733 4.44333 134.406C4.44333 136.28 4.75213 138.061 5.37166 139.75C5.99119 141.439 6.85197 142.936 7.95593 144.241C9.05989 145.546 10.3646 146.582 11.87 147.352C13.3754 148.122 15.0139 148.506 16.7876 148.506C17.7237 148.506 18.6867 148.389 19.673 148.155C20.6592 147.922 21.6049 147.545 22.5081 147.026C23.4114 146.507 24.2567 145.855 25.0422 145.069C25.8277 144.284 26.4724 143.338 26.9742 142.234L30.7377 144.291C30.1683 145.629 29.3751 146.808 28.3541 147.829C27.3331 148.85 26.179 149.711 24.8917 150.413C23.6044 151.116 22.2399 151.652 20.802 152.019C19.3642 152.388 17.9591 152.571 16.5869 152.571C14.1454 152.571 11.9028 152.036 9.86277 150.965C7.82276 149.894 6.05681 148.499 4.56878 146.775C3.08075 145.052 1.92662 143.095 1.10637 140.904C0.286118 138.714 -0.123047 136.481 -0.123047 134.205Z" fill="white"/>
<path d="M49.4552 129.94C47.2472 130.007 45.2979 130.575 43.6092 131.646C41.9204 132.717 40.7238 134.205 40.0213 136.112V152.27H35.6055V126.076H39.7202V132.148C40.6235 130.341 41.8104 128.843 43.283 127.656C44.7537 126.469 46.3266 125.875 47.9999 125.875C48.3338 125.875 48.6195 125.875 48.853 125.875C49.0865 125.875 49.2872 125.892 49.4552 125.925V129.94Z" fill="white"/>
<path d="M65.4631 152.768C63.4887 152.768 61.6822 152.409 60.0437 151.69C58.4032 150.972 56.9981 149.993 55.8286 148.754C54.657 147.517 53.7461 146.069 53.0937 144.414C52.4414 142.758 52.1152 141.011 52.1152 139.17C52.1152 137.33 52.4414 135.591 53.0937 133.951C53.7461 132.312 54.6667 130.873 55.8536 129.636C57.0406 128.398 58.4533 127.42 60.0938 126.7C61.7324 125.98 63.5389 125.621 65.5133 125.621C67.4858 125.621 69.2845 125.99 70.9076 126.725C72.5308 127.46 73.9088 128.439 75.0475 129.661C76.1843 130.882 77.0624 132.303 77.6819 133.926C78.3015 135.549 78.6103 137.23 78.6103 138.969C78.6103 139.338 78.6025 139.671 78.5852 139.973C78.5678 140.274 78.5427 140.507 78.5099 140.675H56.782C56.8823 141.98 57.1834 143.167 57.6852 144.238C58.187 145.309 58.8394 146.228 59.6422 146.998C60.4451 147.768 61.3561 148.37 62.377 148.804C63.398 149.239 64.4769 149.457 65.6137 149.457C66.4165 149.457 67.202 149.349 67.9721 149.13C68.7422 148.914 69.4601 148.621 70.1298 148.252C70.7976 147.884 71.3921 147.432 71.9112 146.897C72.4304 146.363 72.8222 145.761 73.0905 145.091L76.9042 146.145C76.4699 147.115 75.8755 148.001 75.1228 148.804C74.3701 149.607 73.4996 150.302 72.5134 150.887C71.5272 151.473 70.4309 151.933 69.2266 152.267C68.0223 152.601 66.7678 152.768 65.4631 152.768ZM74.4453 137.413C74.345 136.176 74.0362 135.03 73.517 133.976C72.9978 132.922 72.3455 132.027 71.56 131.291C70.7725 130.556 69.8616 129.979 68.8252 129.56C67.7868 129.141 66.6848 128.933 65.5133 128.933C64.3418 128.933 63.2378 129.141 62.2014 129.56C61.1631 129.979 60.2521 130.564 59.4666 131.317C58.6792 132.069 58.0442 132.965 57.5598 134.001C57.0753 135.038 56.782 136.176 56.6816 137.413H74.4453Z" fill="white"/>
<path d="M94.2643 152.77C92.4579 152.77 90.7846 152.401 89.2463 151.666C87.7081 150.931 86.3861 149.944 85.2821 148.705C84.1782 147.468 83.3174 146.028 82.6979 144.39C82.0783 142.751 81.7695 141.028 81.7695 139.221C81.7695 137.382 82.061 135.633 82.6477 133.978C83.2325 132.322 84.0527 130.874 85.1065 129.637C86.1603 128.4 87.4148 127.421 88.87 126.701C90.3252 125.982 91.9213 125.623 93.6622 125.623C95.7697 125.623 97.6515 126.175 99.3074 127.278C100.963 128.382 102.276 129.722 103.247 131.293V115.637H107.662V146.849C107.662 147.887 108.131 148.422 109.067 148.454V152.268C108.699 152.336 108.373 152.386 108.089 152.419C107.803 152.451 107.545 152.469 107.311 152.469C106.308 152.469 105.505 152.21 104.903 151.691C104.3 151.172 103.982 150.545 103.949 149.809L103.849 147.35C102.812 149.057 101.432 150.386 99.7089 151.34C97.9854 152.293 96.1712 152.77 94.2643 152.77ZM95.3181 148.956C96.121 148.956 96.949 148.806 97.802 148.505C98.6551 148.204 99.458 147.785 100.211 147.25C100.963 146.715 101.616 146.088 102.168 145.368C102.72 144.648 103.079 143.888 103.247 143.085V135.558C102.945 134.722 102.494 133.927 101.892 133.175C101.29 132.422 100.612 131.77 99.8594 131.218C99.1067 130.666 98.3038 130.231 97.4508 129.913C96.5977 129.594 95.7524 129.436 94.9167 129.436C93.612 129.436 92.4328 129.712 91.379 130.264C90.3252 130.816 89.422 131.551 88.6693 132.472C87.9166 133.393 87.3395 134.446 86.9381 135.633C86.5366 136.822 86.3359 138.034 86.3359 139.271C86.3359 140.576 86.5694 141.823 87.0384 143.01C87.5055 144.197 88.1424 145.226 88.9453 146.096C89.7481 146.966 90.6938 147.661 91.7804 148.178C92.867 148.698 94.0463 148.956 95.3181 148.956Z" fill="white"/>
<path d="M115.088 121.157V115.637H119.504V121.157H115.088ZM115.088 152.268V126.074H119.504V152.268H115.088Z" fill="white"/>
<path d="M140.029 150.964C139.76 151.098 139.409 151.258 138.975 151.441C138.541 151.626 138.047 151.81 137.495 151.993C136.943 152.176 136.341 152.327 135.688 152.445C135.036 152.562 134.358 152.62 133.656 152.62C132.05 152.62 130.662 152.176 129.491 151.291C128.319 150.405 127.735 149.025 127.735 147.151V129.538H124.172V126.075H127.735V117.344H132.15V126.075H138.022V129.538H132.15V145.796C132.218 146.767 132.535 147.469 133.104 147.903C133.673 148.338 134.341 148.556 135.111 148.556C135.982 148.556 136.775 148.413 137.495 148.129C138.215 147.845 138.707 147.62 138.975 147.452L140.029 150.964Z" fill="white"/>
<path d="M166.02 121.91C164.748 120.473 163.326 119.459 161.755 118.875C160.182 118.29 158.343 117.996 156.235 117.996C152.421 117.996 149.661 118.716 147.955 120.154C146.249 121.594 145.396 123.516 145.396 125.925C145.396 127.129 145.605 128.14 146.023 128.961C146.442 129.781 147.093 130.474 147.98 131.043C148.866 131.613 149.995 132.089 151.368 132.473C152.738 132.859 154.378 133.251 156.285 133.653C158.225 134.054 159.981 134.488 161.554 134.957C163.127 135.426 164.465 136.019 165.569 136.739C166.673 137.458 167.526 138.352 168.128 139.423C168.73 140.494 169.031 141.815 169.031 143.387C169.031 144.893 168.73 146.215 168.128 147.352C167.526 148.49 166.673 149.442 165.569 150.212C164.465 150.982 163.135 151.559 161.579 151.943C160.024 152.327 158.292 152.52 156.386 152.52C153.541 152.52 150.982 152.078 148.708 151.19C146.433 150.305 144.342 148.94 142.436 147.101L143.439 145.846C145.112 147.552 147.017 148.84 149.16 149.71C151.3 150.581 153.726 151.015 156.436 151.015C159.78 151.015 162.415 150.405 164.339 149.183C166.261 147.962 167.224 146.097 167.224 143.588C167.224 142.318 166.991 141.239 166.522 140.352C166.053 139.466 165.343 138.713 164.389 138.093C163.436 137.474 162.239 136.939 160.801 136.488C159.362 136.036 157.657 135.61 155.683 135.208C153.743 134.807 152.02 134.388 150.515 133.954C149.009 133.519 147.747 132.967 146.726 132.298C145.705 131.63 144.937 130.81 144.418 129.839C143.898 128.868 143.64 127.648 143.64 126.176C143.64 124.603 143.941 123.207 144.543 121.986C145.145 120.764 145.991 119.745 147.077 118.925C148.164 118.104 149.478 117.477 151.016 117.043C152.555 116.609 154.278 116.391 156.185 116.391C158.493 116.391 160.508 116.726 162.232 117.394C163.953 118.064 165.536 119.133 166.974 120.606L166.02 121.91Z" fill="white"/>
<path d="M185.992 152.77C184.219 152.77 182.563 152.411 181.025 151.691C179.486 150.973 178.139 149.985 176.985 148.731C175.831 147.476 174.928 146.021 174.275 144.365C173.623 142.709 173.297 140.945 173.297 139.071C173.297 137.232 173.615 135.508 174.25 133.903C174.885 132.297 175.773 130.892 176.91 129.687C178.047 128.483 179.369 127.53 180.874 126.827C182.379 126.125 184.018 125.773 185.792 125.773C187.563 125.773 189.219 126.125 190.76 126.827C192.298 127.53 193.637 128.491 194.774 129.713C195.911 130.934 196.814 132.364 197.484 134.003C198.153 135.642 198.487 137.382 198.487 139.222C198.487 139.289 198.48 139.422 198.462 139.623C198.445 139.824 198.437 139.942 198.437 139.974H175.053C175.154 141.58 175.522 143.078 176.157 144.465C176.792 145.853 177.605 147.05 178.591 148.053C179.577 149.057 180.706 149.852 181.978 150.437C183.25 151.024 184.605 151.315 186.043 151.315C187.013 151.315 187.957 151.19 188.878 150.939C189.798 150.688 190.659 150.329 191.462 149.86C192.265 149.393 192.967 148.831 193.57 148.179C194.172 147.526 194.656 146.816 195.025 146.046L196.58 146.448C196.212 147.351 195.669 148.196 194.95 148.982C194.23 149.769 193.402 150.437 192.466 150.989C191.53 151.541 190.509 151.975 189.405 152.294C188.301 152.612 187.162 152.77 185.992 152.77ZM196.781 138.519C196.681 136.881 196.329 135.375 195.727 134.003C195.125 132.631 194.33 131.444 193.344 130.44C192.356 129.437 191.229 128.659 189.957 128.107C188.685 127.555 187.314 127.279 185.842 127.279C184.369 127.279 182.997 127.564 181.727 128.132C180.455 128.701 179.336 129.487 178.365 130.49C177.394 131.494 176.616 132.681 176.032 134.053C175.445 135.425 175.103 136.913 175.003 138.519H196.781Z" fill="white"/>
<path d="M210.529 152.77C209.324 152.77 208.203 152.562 207.167 152.143C206.13 151.724 205.227 151.157 204.457 150.437C203.687 149.719 203.085 148.874 202.65 147.903C202.216 146.932 201.998 145.878 201.998 144.741C201.998 143.638 202.264 142.626 202.801 141.706C203.336 140.787 204.081 139.992 205.034 139.322C205.987 138.654 207.124 138.135 208.446 137.766C209.768 137.398 211.231 137.214 212.837 137.214C214.275 137.214 215.747 137.332 217.253 137.566C218.758 137.799 220.096 138.151 221.267 138.62V135.809C221.267 133.2 220.522 131.118 219.034 129.562C217.546 128.006 215.547 127.229 213.038 127.229C211.766 127.229 210.421 127.505 208.998 128.057C207.576 128.609 206.13 129.404 204.658 130.44L203.855 129.186C207.232 126.91 210.328 125.773 213.138 125.773C216.182 125.773 218.583 126.677 220.339 128.483C222.095 130.29 222.973 132.766 222.973 135.91V149.559C222.973 150.294 223.274 150.663 223.877 150.663V152.268C223.776 152.301 223.643 152.319 223.475 152.319C222.906 152.319 222.414 152.11 221.995 151.691C221.576 151.273 221.368 150.763 221.368 150.161V147.853C220.196 149.426 218.65 150.638 216.726 151.491C214.802 152.344 212.737 152.77 210.529 152.77ZM210.78 151.315C212.887 151.315 214.809 150.921 216.55 150.136C218.289 149.35 219.594 148.287 220.464 146.949C220.999 146.247 221.267 145.577 221.267 144.942V140.025C218.691 139.021 215.913 138.519 212.937 138.519C210.16 138.519 207.927 139.081 206.238 140.2C204.55 141.322 203.704 142.819 203.704 144.691C203.704 145.627 203.888 146.498 204.256 147.301C204.625 148.104 205.117 148.806 205.736 149.408C206.356 150.01 207.099 150.479 207.969 150.813C208.84 151.149 209.776 151.315 210.78 151.315Z" fill="white"/>
</g>
<defs>
<clipPath id="clip0_0_6">
<rect width="224" height="153" fill="white"/>
</clipPath>
</defs>
</svg>
